<?xml version="1.0" encoding="UTF-8" standalone="no"?>
<!-- Created with Inkscape (http://www.inkscape.org/) -->

<svg
   xmlns:dc="http://purl.org/dc/elements/1.1/"
   xmlns:cc="http://creativecommons.org/ns#"
   xmlns:rdf="http://www.w3.org/1999/02/22-rdf-syntax-ns#"
   xmlns:svg="http://www.w3.org/2000/svg"
   xmlns="http://www.w3.org/2000/svg"
   xmlns:sodipodi="http://sodipodi.sourceforge.net/DTD/sodipodi-0.dtd"
   xmlns:inkscape="http://www.inkscape.org/namespaces/inkscape"
   width="71.065819mm"
   height="77.95829mm"
   viewBox="0 0 251.80802 276.23016"
   id="svg6676"
   version="1.1"
   inkscape:version="0.91 r13725"
   sodipodi:docname="breazoil-logo.svg">
  <defs
     id="defs6678" />
  <sodipodi:namedview
     id="base"
     pagecolor="#ffffff"
     bordercolor="#666666"
     borderopacity="1.0"
     inkscape:pageopacity="0.0"
     inkscape:pageshadow="2"
     inkscape:zoom="0.35"
     inkscape:cx="90.904008"
     inkscape:cy="-39.02779"
     inkscape:document-units="px"
     inkscape:current-layer="layer1"
     showgrid="false"
     inkscape:window-width="1280"
     inkscape:window-height="778"
     inkscape:window-x="-8"
     inkscape:window-y="-8"
     inkscape:window-maximized="1"
     fit-margin-top="1"
     fit-margin-left="1"
     fit-margin-right="1"
     fit-margin-bottom="1" />
  <metadata
     id="metadata6681">
    <rdf:RDF>
      <cc:Work
         rdf:about="">
        <dc:format>image/svg+xml</dc:format>
        <dc:type
           rdf:resource="http://purl.org/dc/dcmitype/StillImage" />
        <dc:title></dc:title>
      </cc:Work>
    </rdf:RDF>
  </metadata>
  <g
     inkscape:label="Layer 1"
     inkscape:groupmode="layer"
     id="layer1"
     transform="translate(277.33258,-217.10424)">
    <g
       id="g7278"
       inkscape:export-xdpi="110.32954"
       inkscape:export-ydpi="110.32954"
       style="fill:#2c5050;fill-opacity:1">
      <g
         id="text6400"
         style="font-style:normal;font-variant:normal;font-weight:normal;font-stretch:normal;font-size:262.96911621px;line-height:50%;font-family:Montez;-inkscape-font-specification:'Montez, Normal';text-align:start;letter-spacing:0px;word-spacing:0px;writing-mode:lr-tb;text-anchor:start;fill:#2c5050;fill-opacity:1;stroke:none;stroke-width:1px;stroke-linecap:butt;stroke-linejoin:miter;stroke-opacity:1"
         transform="translate(-1227.842,-2425.5405)">
        <path
           id="path6487"
           style="fill:#2c5050;fill-opacity:1"
           d="m 1031.7782,2724.6533 q 0,1.284 -0.3852,2.3113 -0.2568,0.8988 -0.642,1.926 -2.1829,5.1361 -4.6225,10.1438 -2.3113,4.8793 -3.8521,10.4007 -3.9805,14.5095 -6.4201,30.1747 -2.3113,15.5367 -3.3385,31.9723 10.4006,0.2568 21.8285,2.568 11.4278,2.3113 22.2137,6.8054 8.0893,-4.8793 14.7663,-11.2995 6.8054,-6.4201 11.5563,-14.2527 4.8793,-7.8326 7.4473,-16.8208 2.6965,-8.9882 2.4397,-18.8752 0,-14.7663 -5.1361,-26.451 -5.0077,-11.6847 -13.4823,-19.774 -8.3462,-8.0894 -19.1321,-12.3267 -10.7858,-4.3657 -22.2137,-4.3657 -7.9609,0 -16.5639,2.9533 -8.603,2.9532 -15.6652,8.2177 -7.06215,5.2646 -11.68465,12.7119 -4.49411,7.4474 -4.49411,16.4356 0,3.4669 0.77042,6.2917 0.89882,2.8249 1.79764,5.1362 1.02723,2.3112 1.79764,4.3657 0.89882,1.926 0.89882,3.852 0,3.7237 -2.56806,6.2918 -2.43965,2.4396 -6.03493,2.4396 -3.33848,0 -5.26452,-1.7976 -1.92604,-1.7976 -3.08167,-4.4941 -1.02722,-2.6965 -1.41243,-5.6497 -0.25681,-3.0817 -0.25681,-5.393 0,-11.2994 5.26452,-20.416 5.39292,-9.245 13.99592,-16.4356 5.39292,-4.6225 10.78582,-8.0894 5.5213,-3.5952 11.2995,-5.9065 5.7781,-2.4397 12.0698,-3.5953 6.4202,-1.284 13.6108,-1.284 17.3343,0 31.2019,5.1361 13.8675,5.0077 23.4977,13.8675 9.6302,8.7314 14.7663,20.4161 5.2645,11.6846 5.2645,24.9101 0,12.1983 -3.7237,22.5989 -3.7236,10.2723 -10.1438,18.8753 -6.4201,8.4746 -15.1515,15.1515 -8.7314,6.677 -18.8752,11.5563 6.5485,3.5953 12.0698,8.2178 5.6498,4.4941 9.7586,10.2722 4.1089,5.6497 6.4202,12.4551 2.3112,6.8053 2.3112,14.7663 0,8.7314 -3.4668,16.4356 -3.4669,7.8325 -9.3734,13.7391 -5.9066,6.0349 -13.7392,9.5018 -7.7041,3.4669 -16.3071,3.4669 -5.0077,0 -10.5291,-1.9261 -5.5213,-1.7976 -10.529,-4.8793 -5.0077,-3.0817 -9.245,-7.0621 -4.2373,-3.9805 -6.8054,-8.2178 l 1.7977,-1.5409 q 6.5485,5.5214 14.8947,8.8598 8.4746,3.4669 16.9492,3.4669 6.5485,-1.0272 11.6847,-4.6225 5.2645,-3.5953 8.8598,-8.8598 3.5952,-5.1361 5.3929,-11.4278 1.926,-6.1634 1.926,-12.4551 0,-12.7119 -5.6497,-21.7001 -5.5213,-8.9882 -14.3811,-14.8947 -11.0427,4.3657 -22.5989,6.5485 -11.5563,2.1828 -22.8557,2.4397 -0.2569,20.2876 0.5136,39.8049 0.8988,19.6456 2.1828,37.2368 l -2.4396,0.7704 q -3.2101,-8.4746 -5.5214,-18.1048 -2.3112,-9.6302 -3.8521,-19.774 -1.5408,-10.1439 -2.56801,-20.4161 -0.89882,-10.4006 -1.28403,-20.4161 -3.08167,-0.5136 -6.29174,-1.4124 -3.08167,-1.0272 -5.64973,-2.4397 -2.43965,-1.5408 -3.98049,-3.5952 -1.54083,-2.0545 -1.54083,-5.0077 0,-2.9533 1.41243,-5.0078 1.54084,-2.0544 3.98049,-3.4668 2.43966,-1.5409 5.52132,-2.3113 3.08167,-0.8988 6.16334,-1.284 0,-5.3929 0.12841,-13.2255 0.1284,-7.8326 0.64201,-16.564 0.64202,-8.8598 1.79763,-17.848 1.284,-9.1166 3.5953,-17.0776 2.3112,-7.961 5.7781,-14.1243 3.4669,-6.1633 8.603,-9.1166 1.9261,-1.1556 4.2373,-2.0544 2.3113,-1.0273 4.8793,-1.0273 3.9805,0 3.9805,3.5953 z m -20.1592,109.3993 q 10.0154,-0.1284 19.774,-2.5681 9.887,-2.4396 18.7468,-6.9337 -8.603,-4.2373 -18.49,-6.2918 -9.7586,-2.1828 -19.3888,-2.6964 -0.2568,4.6225 -0.3852,9.245 -0.1284,4.6225 -0.2568,9.245 z m -25.80902,-10.7859 q 0,1.9261 1.02722,3.4669 1.15563,1.4124 2.82486,2.5681 1.79764,1.1556 3.98049,2.0544 2.31125,0.7704 4.75091,1.284 -0.1284,-4.3657 -0.25681,-8.4745 0,-4.1089 0,-8.2178 -2.31125,0.2568 -4.4941,0.8988 -2.18285,0.5136 -3.98049,1.4124 -1.66923,0.7704 -2.82486,2.0545 -1.02722,1.284 -1.02722,2.9532 z"
           inkscape:connector-curvature="0" />
      </g>
      <path
         inkscape:connector-curvature="0"
         id="circle6408"
         d="m -34.061345,230.98138 a 62.629459,62.629459 0 0 0 -63.3137,6.1982 62.629459,62.629459 0 0 0 -25.141295,58.3762 62.629459,62.629459 0 0 0 63.311995,-6.197 62.629459,62.629459 0 0 0 25.143,-58.3774 z"
         style="opacity:1;fill:#2c5050;fill-opacity:1;fill-rule:nonzero;stroke:#000000;stroke-width:9;stroke-linecap:round;stroke-linejoin:round;stroke-miterlimit:4;stroke-dasharray:none;stroke-opacity:0" />
      <path
         style="opacity:1;fill:#2c5050;fill-opacity:1;fill-rule:nonzero;stroke:#000000;stroke-width:9;stroke-linecap:round;stroke-linejoin:round;stroke-miterlimit:4;stroke-dasharray:none;stroke-opacity:0"
         d="m -197.47334,329.52268 a 36.489,36.077328 0 0 1 36.8877,3.5704 36.489,36.077328 0 0 1 14.6477,33.6273 36.489,36.077328 0 0 1 -36.8866,-3.5697 36.489,36.077328 0 0 1 -14.6488,-33.628 z"
         id="path6497"
         inkscape:connector-curvature="0" />
      <path
         inkscape:connector-curvature="0"
         id="path6501"
         d="m -251.15807,392.84368 a 14.70496,13.947833 80.325235 0 0 -3.85891,-14.4222 14.70496,13.947833 80.325235 0 0 -13.80783,-3.6342 14.70496,13.947833 80.325235 0 0 3.85865,14.4218 14.70496,13.947833 80.325235 0 0 13.80809,3.6346 z"
         style="opacity:1;fill:#2c5050;fill-opacity:1;fill-rule:nonzero;stroke:#000000;stroke-width:9;stroke-linecap:round;stroke-linejoin:round;stroke-miterlimit:4;stroke-dasharray:none;stroke-opacity:0" />
      <path
         style="opacity:1;fill:#2c5050;fill-opacity:1;fill-rule:nonzero;stroke:#000000;stroke-width:9;stroke-linecap:round;stroke-linejoin:round;stroke-miterlimit:4;stroke-dasharray:none;stroke-opacity:0"
         d="m -246.44399,408.58268 a 8.2494736,8.7656209 8.3857002 0 1 -2.28189,8.5988 8.2494736,8.7656209 8.3857002 0 1 -8.16503,2.1668 8.2494736,8.7656209 8.3857002 0 1 2.28175,-8.5986 8.2494736,8.7656209 8.3857002 0 1 8.16517,-2.167 z"
         id="path6505"
         inkscape:connector-curvature="0" />
    </g>
  </g>
</svg>
