<svg xmlns="http://www.w3.org/2000/svg" viewBox="0 0 179.79 52.97"><defs><style>.cls-1{fill:#333c45;}</style></defs><title>fwa</title><path class="cls-1" d="M153.43 7.92a3.92 3.92 0 0 1 1.86.47 3.87 3.87 0 0 1 2 3.41v11h10.75a3.87 3.87 0 1 1 0 7.75h-10.7v10.45a3.89 3.89 0 0 1-3.91 3.87h-29.94a3.89 3.89 0 0 1-3.9-3.87v-14.5a3.89 3.89 0 0 1 3.9-3.7h26v-7.13h-30l-14.27 26.22a3.87 3.87 0 0 1-2.14 2.76 3.92 3.92 0 0 1-5.08-1.54 3.85 3.85 0 0 1-.36-.69l-11.25-21.91-11.39 21.42a5 5 0 0 1-2.37 2.72 3.93 3.93 0 0 1-5.07-1.54 3.87 3.87 0 0 1-.37-.69l-13.74-26.75h-23v7.13h18.55a3.87 3.87 0 1 1 0 7.75h-18.53v10.65a3.91 3.91 0 0 1-7.82 0v-10.65h-10.74a3.87 3.87 0 0 1 0-7.75h10.75v-11a3.87 3.87 0 0 1 2-3.41 3.92 3.92 0 0 1 1.86-.47h29.19a4.27 4.27 0 0 1 3.69 2.28l11.53 22.42 11.56-21.41c.58-1.17.9-2.23 2.15-2.82a3.93 3.93 0 0 1 4.36.61 4.71 4.71 0 0 1 1.53 1.86l10.89 21.75 12.23-22.48a3.86 3.86 0 0 1 1.26-1.32 3.92 3.92 0 0 1 2.5-.89h36.07m-26.25 29.19h22.3v-6.56h-22.3v6.56m26.2-37.11h-36.07a12.77 12.77 0 0 0-10.7 6.22v.16l-5 9.17s-5.87-11.23-7.55-12.6a12 12 0 0 0-12.93-1.7c-3.1 1.48-4.82 4.19-6.28 7.38l-3.77 6.93-4.57-8.9a11.87 11.87 0 0 0-5.66-5.48 12.05 12.05 0 0 0-5.19-1.18h-29.14a12 12 0 0 0-5.68 1.43 11.78 11.78 0 0 0-6.23 10.37v3.08h-2.75a11.8 11.8 0 0 0 0 23.6h2.75v2.73a11.91 11.91 0 0 0 23.81 0v-2.73h10.53a11.91 11.91 0 0 0 6.24-1.76l4.66 9.07a11.67 11.67 0 0 0 .81 1.5 12 12 0 0 0 15.33 4.5 13.6 13.6 0 0 0 6.71-6.71l3.39-7.49 4.22 8.2a11.69 11.69 0 0 0 .81 1.5 11.93 11.93 0 0 0 21.26-1.84 11.92 11.92 0 0 0 11 7.34h29.94a11.69 11.69 0 0 0 11.9-11.46v-2.8600000000000003h2.75a11.8 11.8 0 1 0 0-23.6h-2.75v-3.07a11.78 11.78 0 0 0-6.23-10.37 12 12 0 0 0-5.61-1.43z" transform="translate(-.11)"/></svg>