<svg xmlns="http://www.w3.org/2000/svg" viewBox="0 0 150 150"><defs><style>.a{fill:#fff;}</style></defs><title>-icons</title><path class="a" d="M140.64 34.17c2.93-3 7-20.07 9.23-30a3.09 3.09 0 0 0-3.7-3.69l-19.26 4.32c-1.23.31-7.51 2-10.48 5a17.43 17.43 0 0 0-2.25 21.55l-1.66-1.66a3.09 3.09 0 0 0-4.11-.23l-30.57 24.47a3.09 3.09 0 0 0-1.15 2.24 3 3 0 0 0 .8 2.19 3.39 3.39 0 0 0-2.09-.81 5.28 5.28 0 0 0-2.59.87 3.06 3.06 0 0 0 .79-2.19 3.09 3.09 0 0 0-1.15-2.23l-30.56-24.49a3.08 3.08 0 0 0-4.11.23l-1.15 1.15a16.9 16.9 0 0 0-2.35-21.27c-3-2.93-20.07-7-30-9.23a3.09 3.09 0 0 0-3.68 3.69l4.32 19.26c.31 1.23 2 7.51 5 10.48a17.35 17.35 0 0 0 21.55 2.24l-1.67 1.67a3.08 3.08 0 0 0-.23 4.11l24.43 30.59a3.09 3.09 0 0 0 2.24 1.15h.17a3.07 3.07 0 0 0 2-.79 3 3 0 0 0-.74 2.58l-54.67 59.44a3.08 3.08 0 0 0-.76 1.54l-1.74 9.77a3.08 3.08 0 0 0 3 3.64 2.84 2.84 0 0 0 .55 0l9.77-1.78a3 3 0 0 0 1.54-.77l59.72-55 59.8 55a3.07 3.07 0 0 0 1.54.77l9.76 1.78a3.17 3.17 0 0 0 .56 0 3.08 3.08 0 0 0 3-3.64l-1.74-9.69a3.08 3.08 0 0 0-.76-1.54l-54.74-59.52a2.48 2.48 0 0 0 .13-.57 3 3 0 0 0-.79-2.08 3.07 3.07 0 0 0 2 .79h.16a3.09 3.09 0 0 0 2.24-1.15l24.48-30.57a3.08 3.08 0 0 0-.22-4.11l-1.15-1.15a16.9 16.9 0 0 0 21.29-2.36zm-110.69-4.73a11.48 11.48 0 0 1-15.71 0c-1.32-1.3-2.74-5.21-3.31-7.5l-3.23-14.43c10.22 2.4 20.63 5.3 22.25 6.51a10.8 10.8 0 0 1 0 15.42zm26.76 36.44l-20.61-25.73 4.08-4.09 25.73 20.61zm16.29 19.87l-61.13 56.25-4.5.82.82-4.5 67-73.59 9.9 9.9zm69.09 52.66l.82 4.51-4.5-.82-58.74-54.1 8.71-8zm-48.49-72.61l-9.2-9.21 25.72-20.59 4.08 4.09zm27.23-36a11.21 11.21 0 0 1 0-15.71c1.3-1.32 5.21-2.74 7.5-3.31l14.42-3.24c-2.4 10.22-5.3 20.63-6.51 22.25a11.05 11.05 0 0 1-15.41.04z"/></svg>