<?xml version="1.0" encoding="UTF-8" standalone="no"?>
<!-- Created with Inkscape (http://www.inkscape.org/) -->

<svg
   xmlns:dc="http://purl.org/dc/elements/1.1/"
   xmlns:cc="http://creativecommons.org/ns#"
   xmlns:rdf="http://www.w3.org/1999/02/22-rdf-syntax-ns#"
   xmlns:svg="http://www.w3.org/2000/svg"
   xmlns="http://www.w3.org/2000/svg"
   xmlns:sodipodi="http://sodipodi.sourceforge.net/DTD/sodipodi-0.dtd"
   xmlns:inkscape="http://www.inkscape.org/namespaces/inkscape"
   width="65.949234mm"
   height="39.823395mm"
   viewBox="0 0 233.67839 141.10651"
   id="svg5846"
   version="1.1"
   inkscape:version="0.91 r13725"
   sodipodi:docname="makinchops-logo.svg"
   inkscape:export-filename="C:\Users\airfusiontravels\Documents\Projects\Heroku\craftedny\img\makinchops-logo.jpg"
   inkscape:export-xdpi="119.15701"
   inkscape:export-ydpi="119.15701">
  <defs
     id="defs5848" />
  <sodipodi:namedview
     id="base"
     pagecolor="#ffffff"
     bordercolor="#666666"
     borderopacity="1.0"
     inkscape:pageopacity="0.0"
     inkscape:pageshadow="2"
     inkscape:zoom="0.35"
     inkscape:cx="-343.87508"
     inkscape:cy="104.83897"
     inkscape:document-units="px"
     inkscape:current-layer="layer1"
     showgrid="false"
     fit-margin-top="1"
     fit-margin-left="1"
     fit-margin-right="1"
     fit-margin-bottom="1"
     inkscape:window-width="1280"
     inkscape:window-height="778"
     inkscape:window-x="-8"
     inkscape:window-y="-8"
     inkscape:window-maximized="1" />
  <metadata
     id="metadata5851">
    <rdf:RDF>
      <cc:Work
         rdf:about="">
        <dc:format>image/svg+xml</dc:format>
        <dc:type
           rdf:resource="http://purl.org/dc/dcmitype/StillImage" />
        <dc:title></dc:title>
      </cc:Work>
    </rdf:RDF>
  </metadata>
  <g
     inkscape:label="Layer 1"
     inkscape:groupmode="layer"
     id="layer1"
     transform="translate(-157.44651,-496.09466)">
    <path
       inkscape:connector-curvature="0"
       style="font-style:normal;font-variant:normal;font-weight:bold;font-stretch:normal;font-size:313.68240356px;line-height:50%;font-family:'Script MT Bold';-inkscape-font-specification:'Script MT Bold, Bold';text-align:start;letter-spacing:0px;word-spacing:0px;writing-mode:lr-tb;text-anchor:start;fill:#2c5050;fill-opacity:1;stroke:none;stroke-width:1px;stroke-linecap:butt;stroke-linejoin:miter;stroke-opacity:1"
       d="m 269.95076,499.63797 c -14.60175,0 -35.63588,15.9809 -63.10351,47.9414 2.21453,-9.3503 4.97665,-18.9084 8.26562,-28.6661 a 21.213203,25.253813 16.990292 0 1 -8.23046,-0.5292 21.213203,25.253813 16.990292 0 1 -12.9375,-13.5411 l -8.69336,1.6875 c -7.66713,16.1367 -13.46534,30.5222 -17.39649,43.1563 a 21.501685,22.132874 54.289285 0 1 6.02149,6.6426 21.501685,22.132874 54.289285 0 1 -0.0508,21.1718 17.257099,17.374443 0 0 1 10.95118,8.2207 17.257099,17.374443 0 0 1 -6.36914,23.7207 17.257099,17.374443 0 0 1 -7.80274,2.2735 26.230791,26.409153 0 0 1 -9.61523,10.2871 c 0.18328,3.5365 0.39676,7.2124 0.67382,11.1953 l 34.00196,-8.1172 c 0.10211,-8.5772 0.51179,-16.3377 1.22656,-23.2812 0.61266,-6.9435 1.73538,-14.8065 3.36914,-23.5879 1.22532,-7.352 4.28817,-13.7849 9.18945,-19.2989 3.57386,-4.0844 7.04638,-7.812 10.41602,-11.1816 3.16541,-3.1654 6.12584,-5.9732 8.88281,-8.4238 2.55276,-2.2464 4.9528,-4.1866 7.19922,-5.8203 1.94009,-1.4296 3.67538,-2.5001 5.20703,-3.2149 1.32743,-0.7147 2.34968,-1.0722 3.06446,-1.0722 2.34853,0 3.52148,1.7352 3.52148,5.207 0,1.2434 -0.40958,4.3994 -1.19531,9.3105 a 13.787873,14.103415 87.049461 0 1 3.79883,1.9258 13.787873,14.103415 87.049461 0 1 5.63085,12.9356 13.787873,14.103415 87.049461 0 1 -8.25,10.7754 10.99485,11.142961 26.272303 0 1 2.3379,8.4511 10.99485,11.142961 26.272303 0 1 -12.43164,9.6172 10.99485,11.142961 26.272303 0 1 -0.13672,-0.023 l -10.89063,46.2578 38.9043,-7.0449 9.18945,-36.1465 5.05469,-21.9024 c 0.81688,-3.5738 3.472,-8.0164 7.96484,-13.3261 2.65487,-3.1654 5.30998,-6.0756 7.96485,-8.7305 2.45064,-2.6549 4.79849,-5.0027 7.04492,-7.0449 2.24642,-2.0422 4.33918,-3.7795 6.2793,-5.209 1.94009,-1.3274 3.67733,-2.3477 5.20898,-3.0625 1.42954,-0.7148 2.65468,-1.0723 3.67578,-1.0723 3.36964,0 5.05469,1.6348 5.05469,4.9024 0,3.6759 -2.75754,13.9891 -8.27149,30.9394 -5.51394,16.9503 -8.27148,30.9389 -8.27148,41.9668 0,7.8625 1.94013,14.1408 5.82031,18.8379 3.9823,4.595 9.34276,6.8926 16.08203,6.8926 8.57726,0 17.41025,-3.1131 26.49805,-9.3418 9.0878,-6.2287 20.01357,-15.5719 32.77734,-28.0293 l 0,-17.6152 c -11.84477,12.6616 -20.16566,20.7796 -24.96484,24.3535 -4.69707,3.4717 -8.37443,5.209 -11.0293,5.209 -4.18651,0 -6.27929,-2.86 -6.27929,-8.5782 0,-1.2627 0.16646,-2.8455 0.48242,-4.7187 a 24.769628,25.034344 0 0 1 -16.93164,-23.7129 24.769628,25.034344 0 0 1 18.2832,-24.1543 24.769628,25.034344 0 0 1 -0.0312,-0.8809 24.769628,25.034344 0 0 1 4,-13.5976 16.295808,16.469963 0 0 1 -4,-10.7774 16.295808,16.469963 0 0 1 10.85352,-15.5039 c -3.56581,-4.4461 -8.14176,-6.6718 -13.72852,-6.6718 -6.33083,0 -13.27393,2.6551 -20.83008,7.9648 -7.45404,5.2076 -19.80979,16.4406 -37.0664,33.6973 1.0211,-8.7815 1.53125,-14.8067 1.53125,-18.0743 0,-7.0456 -1.6831,-12.7133 -5.05274,-17.0019 -3.26752,-4.3907 -7.55746,-6.5859 -12.86719,-6.5859 z"
       id="text5789"
       inkscape:export-xdpi="119.15701"
       inkscape:export-ydpi="119.15701" />
  </g>
</svg>
