<svg xmlns="http://www.w3.org/2000/svg" viewBox="0 0 150 150"><defs><style>.a,.b{fill:#fff;}.b{fill-rule:evenodd;}</style></defs><title>-icons</title><path class="a" d="M75.11 4.48a37 37 0 0 1 36.94 37c0 17.2-18.6 57.47-23.41 67.57h-23.9c-8.39-15.58-26.55-52.39-26.55-67.62a37 37 0 0 1 36.92-37m0-4.15a41.1 41.1 0 0 0-41.11 41.15c0 20.57 28.26 71.76 28.26 71.76h29s25-50.87 25-71.76a41.1 41.1 0 0 0-41.15-41.11zm0 0"/><path class="b" d="M63.73 143.36h25.45a13.68 13.68 0 0 0 1.39-2.87h-28.23a16.05 16.05 0 0 0 1.39 2.87zm0 0M76.47 150.41a14.94 14.94 0 0 0 10.53-4.29h-21a15 15 0 0 0 10.52 4.29zm0 0M91.56 117.14h-30.18v18.18a13.89 13.89 0 0 0 .24 2.41h29.68a13.89 13.89 0 0 0 .26-2.41v-18.18zm0 0M92 52.73v-.08l-.42-.1-3.58-1.64-12.53 4.63-10.58-4.63-4 1.52v.32l13.79 60.45h3.45l13.87-60.43zm-15.5 52.44l-11.64-51 10.61 3.93 12.67-4.1zm0 0"/></svg>