<?xml version="1.0" encoding="UTF-8" standalone="no"?>
<!-- Created with Inkscape (http://www.inkscape.org/) -->

<svg
   xmlns:dc="http://purl.org/dc/elements/1.1/"
   xmlns:cc="http://creativecommons.org/ns#"
   xmlns:rdf="http://www.w3.org/1999/02/22-rdf-syntax-ns#"
   xmlns:svg="http://www.w3.org/2000/svg"
   xmlns="http://www.w3.org/2000/svg"
   xmlns:sodipodi="http://sodipodi.sourceforge.net/DTD/sodipodi-0.dtd"
   xmlns:inkscape="http://www.inkscape.org/namespaces/inkscape"
   width="210mm"
   height="297mm"
   viewBox="0 0 744.09448819 1052.3622047"
   id="svg4426"
   version="1.1"
   inkscape:version="0.91 r13725"
   sodipodi:docname="techxodus-logo.svg">
  <defs
     id="defs4428">
    <style
       id="style4977">.cls-1{fill:#fff;}</style>
  </defs>
  <sodipodi:namedview
     id="base"
     pagecolor="#ffffff"
     bordercolor="#666666"
     borderopacity="1.0"
     inkscape:pageopacity="0.0"
     inkscape:pageshadow="2"
     inkscape:zoom="0.98994949"
     inkscape:cx="-49.242407"
     inkscape:cy="-29.278061"
     inkscape:document-units="px"
     inkscape:current-layer="layer1"
     showgrid="false"
     inkscape:window-width="1280"
     inkscape:window-height="778"
     inkscape:window-x="-8"
     inkscape:window-y="-8"
     inkscape:window-maximized="1" />
  <metadata
     id="metadata4431">
    <rdf:RDF>
      <cc:Work
         rdf:about="">
        <dc:format>image/svg+xml</dc:format>
        <dc:type
           rdf:resource="http://purl.org/dc/dcmitype/StillImage" />
        <dc:title></dc:title>
      </cc:Work>
    </rdf:RDF>
  </metadata>
  <g
     inkscape:label="Layer 1"
     inkscape:groupmode="layer"
     id="layer1">
    <rect
       style="opacity:1;fill:#000000;fill-opacity:0.99378884;fill-rule:nonzero;stroke:#000000;stroke-width:9;stroke-linecap:round;stroke-linejoin:round;stroke-miterlimit:4;stroke-dasharray:none;stroke-opacity:0"
       id="rect4989"
       width="188.89853"
       height="103.03556"
       x="-259.60922"
       y="474.55493" />
    <path
       id="path4981"
       d="m -175.09007,523.0976 c -1.08,-3.78 -3.64,-5.5 -7.1,-5.28 -6.18,0.39 -9.11,6.2 -8.7,12.74 0.38,6.07 3.9,9.7 9.52,9.35 a 10.85,10.85 0 0 0 7.54,-4.22 l 7.19,7.24 c -3.6,4 -8.44,6.35 -15.84,6.81 -11.39,0.71 -20.38,-6.24 -21.16,-18.1 -0.83,-13.84 8,-22.74 19.15,-23.44 6,-0.37 9,2.07 10.5,4 l 1.45,-3.94 7.77,-0.49 -1.52,14.78 z m 28.76,-7.71 c 3.34,-8.18 8,-10.07 11.95,-10.32 a 9.41,9.41 0 0 1 5.13,0.9 l -2.93,11.82"
       class="cls-1"
       inkscape:connector-curvature="0"
       style="fill:#ffffff" />
    <text
       xml:space="preserve"
       style="font-style:normal;font-variant:normal;font-weight:normal;font-stretch:normal;font-size:70px;line-height:50%;font-family:'Bauhaus 93';-inkscape-font-specification:'Bauhaus 93, Normal';text-align:start;letter-spacing:0px;word-spacing:0px;writing-mode:lr-tb;text-anchor:start;fill:#000000;fill-opacity:1;stroke:none;stroke-width:1px;stroke-linecap:butt;stroke-linejoin:miter;stroke-opacity:1"
       x="-273.75134"
       y="734.16412"
       id="text4991"
       sodipodi:linespacing="50%"><tspan
         sodipodi:role="line"
         id="tspan4993"
         x="-273.75134"
         y="734.16412">techxodusng</tspan></text>
    <path
       inkscape:connector-curvature="0"
       id="path5000"
       style="font-style:normal;font-variant:normal;font-weight:normal;font-stretch:normal;font-size:medium;line-height:50%;font-family:'Bauhaus 93';-inkscape-font-specification:'Bauhaus 93, Normal';text-align:start;letter-spacing:0px;word-spacing:0px;writing-mode:lr-tb;text-anchor:start;fill:#000000;fill-opacity:1;stroke:none;stroke-width:1px;stroke-linecap:butt;stroke-linejoin:miter;stroke-opacity:1"
       d="m -258.64392,804.68652 0,13.05664 5.74219,0 0,13.50098 -5.74219,0 q 0,4.06738 1.26465,5.60547 1.29883,1.53809 4.71679,1.53809 l 0,13.43261 q -0.99121,0.0342 -1.46972,0.0342 -4.34082,0 -8.20313,-2.0166 -3.82812,-2.0166 -6.15234,-5.46875 -2.93945,-4.40918 -2.93945,-11.68945 l 0,-27.99317 12.7832,0 z" />
    <path
       inkscape:connector-curvature="0"
       id="path5002"
       style="font-style:normal;font-variant:normal;font-weight:normal;font-stretch:normal;font-size:medium;line-height:50%;font-family:'Bauhaus 93';-inkscape-font-specification:'Bauhaus 93, Normal';text-align:start;letter-spacing:0px;word-spacing:0px;writing-mode:lr-tb;text-anchor:start;fill:#000000;fill-opacity:1;stroke:none;stroke-width:1px;stroke-linecap:butt;stroke-linejoin:miter;stroke-opacity:1"
       d="m -213.15076,836.37109 -19.37988,0 q -0.44434,-1.46972 -0.44434,-2.70019 0,-1.70899 0.61524,-3.34961 l 6.49414,0 q -0.68359,-3.79395 -4.27246,-3.79395 -2.39258,0 -3.89649,2.05078 -1.5039,2.01661 -1.5039,5.19532 0,3.31543 1.43554,5.36621 1.46973,2.05078 3.82813,2.05078 1.91406,0 3.69141,-1.91406 l 7.28027,8.75 q -5.09277,3.99902 -11.31348,3.99902 -7.58789,0 -12.74902,-5.09277 -5.16113,-5.09278 -5.16113,-12.61231 0,-7.48535 5.19531,-12.64648 5.22949,-5.16113 12.81738,-5.16113 7.41699,0 12.44141,5.05859 5.05859,5.02441 5.05859,12.40723 0,0.75195 -0.13672,2.39257 z" />
    <path
       inkscape:connector-curvature="0"
       id="path5004"
       style="font-style:normal;font-variant:normal;font-weight:normal;font-stretch:normal;font-size:medium;line-height:50%;font-family:'Bauhaus 93';-inkscape-font-specification:'Bauhaus 93, Normal';text-align:start;letter-spacing:0px;word-spacing:0px;writing-mode:lr-tb;text-anchor:start;fill:#000000;fill-opacity:1;stroke:none;stroke-width:1px;stroke-linecap:butt;stroke-linejoin:miter;stroke-opacity:1"
       d="m -186.90076,835.65332 12.68067,-0.47852 q -0.54688,7.38282 -5.50293,12.13379 -4.95606,4.75098 -12.06543,4.75098 -7.51953,0 -12.71485,-5.22949 -5.16113,-5.22949 -5.16113,-12.81738 0,-7.21192 5.22949,-12.33887 5.2295,-5.12696 12.54395,-5.12696 6.3916,0 11.2793,4.03321 4.88769,4.0332 6.08398,10.28808 l -12.9541,0.47852 q -1.67481,-2.1875 -4.23828,-2.1875 -2.1875,0 -3.58887,1.43555 -1.40137,1.43554 -1.40137,3.62304 0,2.22168 1.46973,3.72559 1.50391,1.50391 3.72559,1.50391 3.24707,0 4.61425,-3.79395 z" />
    <path
       inkscape:connector-curvature="0"
       id="path5006"
       style="font-style:normal;font-variant:normal;font-weight:normal;font-stretch:normal;font-size:medium;line-height:50%;font-family:'Bauhaus 93';-inkscape-font-specification:'Bauhaus 93, Normal';text-align:start;letter-spacing:0px;word-spacing:0px;writing-mode:lr-tb;text-anchor:start;fill:#000000;fill-opacity:1;stroke:none;stroke-width:1px;stroke-linecap:butt;stroke-linejoin:miter;stroke-opacity:1"
       d="m -155.79724,804.68652 0,14.25293 q 3.24707,-2.3584 6.49414,-2.3584 4.92187,0 7.79297,3.55469 2.90527,3.55469 2.90527,9.60449 l 0,21.60157 -12.7832,0 0,-18.0127 q 0,-2.1875 -0.47852,-2.93945 -0.44433,-0.75195 -1.77734,-0.75195 -2.15332,0 -2.15332,3.17871 l 0,18.52539 -12.7832,0 0,-46.65528 12.7832,0 z" />
    <path
       inkscape:connector-curvature="0"
       id="path5008"
       style="font-style:normal;font-variant:normal;font-weight:normal;font-stretch:normal;font-size:medium;line-height:50%;font-family:'Bauhaus 93';-inkscape-font-specification:'Bauhaus 93, Normal';text-align:start;letter-spacing:0px;word-spacing:0px;writing-mode:lr-tb;text-anchor:start;fill:#000000;fill-opacity:1;stroke:none;stroke-width:1px;stroke-linecap:butt;stroke-linejoin:miter;stroke-opacity:1"
       d="m -113.92712,817.26465 12.7832,0 0,7.48535 q 0,3.21289 -0.95703,5.19531 -0.92285,1.94824 -3.21289,3.45215 2.32422,1.57227 3.24707,3.45215 0.92285,1.87988 0.92285,4.92187 l 0,9.57032 -12.7832,0 0,-10.28809 q 0,-3.52051 -2.46094,-3.52051 -2.39258,0 -2.39258,3.042 l 0,10.7666 -12.7832,0 0,-9.0918 q 0,-3.14453 1.12793,-5.12695 1.16211,-1.98243 3.99902,-3.72559 -2.83691,-1.8457 -3.99902,-3.89648 -1.12793,-2.05078 -1.12793,-5.2295 l 0,-7.00683 12.7832,0 0,8.61328 q 0,1.33301 0.68359,2.1875 0.6836,0.85449 1.74317,0.85449 2.42676,0 2.42676,-3.04199 l 0,-8.61328 z" />
    <path
       inkscape:connector-curvature="0"
       id="path5010"
       style="font-style:normal;font-variant:normal;font-weight:normal;font-stretch:normal;font-size:medium;line-height:50%;font-family:'Bauhaus 93';-inkscape-font-specification:'Bauhaus 93, Normal';text-align:start;letter-spacing:0px;word-spacing:0px;writing-mode:lr-tb;text-anchor:start;fill:#000000;fill-opacity:1;stroke:none;stroke-width:1px;stroke-linecap:butt;stroke-linejoin:miter;stroke-opacity:1"
       d="m -78.038452,816.54687 q 7.246094,0 12.407226,5.2295 5.195313,5.19531 5.195313,12.47558 0,7.38282 -5.263672,12.57813 -5.229492,5.19531 -12.646484,5.19531 -7.416993,0 -12.680664,-5.19531 -5.263672,-5.22949 -5.263672,-12.57813 0,-7.48535 5.263672,-12.57812 5.263671,-5.12696 12.988281,-5.12696 z m -0.341797,12.61231 q -2.050781,0 -3.486328,1.50391 -1.435547,1.46972 -1.435547,3.62304 0,2.11914 1.435547,3.62305 1.469726,1.50391 3.486328,1.50391 2.050781,0 3.486328,-1.50391 1.469727,-1.50391 1.469727,-3.62305 0,-2.15332 -1.435547,-3.62304 -1.435547,-1.50391 -3.520508,-1.50391 z" />
    <path
       inkscape:connector-curvature="0"
       id="path5012"
       style="font-style:normal;font-variant:normal;font-weight:normal;font-stretch:normal;font-size:medium;line-height:50%;font-family:'Bauhaus 93';-inkscape-font-specification:'Bauhaus 93, Normal';text-align:start;letter-spacing:0px;word-spacing:0px;writing-mode:lr-tb;text-anchor:start;fill:#000000;fill-opacity:1;stroke:none;stroke-width:1px;stroke-linecap:butt;stroke-linejoin:miter;stroke-opacity:1"
       d="m -34.117554,804.68652 12.783203,0 0,28.40332 q 0,7.82715 -4.101562,12.74903 -2.358399,2.83691 -6.015625,4.51172 -3.623047,1.6748 -7.451172,1.6748 -7.62207,0 -12.851562,-5.12695 -5.229493,-5.12696 -5.229493,-12.57813 0,-7.21191 5.195313,-12.47558 5.195312,-5.26368 12.304687,-5.26368 1.12793,0 3.417969,0.20508 l 0,14.08203 q -1.572266,-1.23046 -3.144531,-1.23046 -1.982422,0 -3.417969,1.46972 -1.401367,1.43555 -1.401367,3.48633 0,1.98242 1.469726,3.41797 1.469727,1.40137 3.520508,1.40137 4.921875,0 4.921875,-6.80176 l 0,-27.92481 z" />
    <path
       inkscape:connector-curvature="0"
       id="path5014"
       style="font-style:normal;font-variant:normal;font-weight:normal;font-stretch:normal;font-size:medium;line-height:50%;font-family:'Bauhaus 93';-inkscape-font-specification:'Bauhaus 93, Normal';text-align:start;letter-spacing:0px;word-spacing:0px;writing-mode:lr-tb;text-anchor:start;fill:#000000;fill-opacity:1;stroke:none;stroke-width:1px;stroke-linecap:butt;stroke-linejoin:miter;stroke-opacity:1"
       d="m -14.635132,817.74316 12.7832033,0 0,19.24317 q 0,2.90527 2.4267578,2.90527 2.3925781,0 2.3925781,-2.90527 l 0,-19.24317 12.7832028,0 0,19.00391 q 0,6.63086 -4.409179,11.21094 -4.40918,4.5459 -10.80078159,4.5459 -7.28027341,0 -11.72363241,-5.29786 -3.452149,-4.13574 -3.452149,-11.48437 l 0,-17.97852 z" />
    <path
       inkscape:connector-curvature="0"
       id="path5016"
       style="font-style:normal;font-variant:normal;font-weight:normal;font-stretch:normal;font-size:medium;line-height:50%;font-family:'Bauhaus 93';-inkscape-font-specification:'Bauhaus 93, Normal';text-align:start;letter-spacing:0px;word-spacing:0px;writing-mode:lr-tb;text-anchor:start;fill:#000000;fill-opacity:1;stroke:none;stroke-width:1px;stroke-linecap:butt;stroke-linejoin:miter;stroke-opacity:1"
       d="m 44.598267,817.74316 0,13.4668 q -2.700196,0 -3.725586,1.02539 -0.991211,0.99121 -1.264649,3.96485 -0.888672,9.87792 -7.65625,13.94531 -3.588867,2.11914 -10.185547,2.11914 l -1.777343,0 0,-13.53516 0.581054,0 q 3.076172,0 4.375,-1.26465 1.333008,-1.29882 1.538086,-4.51172 0.273438,-5.22949 0.957031,-7.34863 0.717774,-2.11914 2.871094,-4.2041 3.759766,-3.65723 10.424805,-3.65723 l 3.862305,0 z" />
    <path
       inkscape:connector-curvature="0"
       id="path5018"
       style="font-style:normal;font-variant:normal;font-weight:normal;font-stretch:normal;font-size:medium;line-height:50%;font-family:'Bauhaus 93';-inkscape-font-specification:'Bauhaus 93, Normal';text-align:start;letter-spacing:0px;word-spacing:0px;writing-mode:lr-tb;text-anchor:start;fill:#000000;fill-opacity:1;stroke:none;stroke-width:1px;stroke-linecap:butt;stroke-linejoin:miter;stroke-opacity:1"
       d="m 79.18811,851.3418 -12.783203,0 0,-19.24317 q 0,-2.93945 -2.426758,-2.93945 -2.392578,0 -2.392578,2.93945 l 0,19.24317 -12.783203,0 0,-19.00391 q 0,-6.66504 4.40918,-11.21094 4.40918,-4.58008 10.800781,-4.58008 7.314453,0 11.723633,5.29786 3.452148,4.13574 3.452148,11.51855 l 0,17.97852 z" />
    <path
       inkscape:connector-curvature="0"
       id="path5020"
       style="font-style:normal;font-variant:normal;font-weight:normal;font-stretch:normal;font-size:medium;line-height:50%;font-family:'Bauhaus 93';-inkscape-font-specification:'Bauhaus 93, Normal';text-align:start;letter-spacing:0px;word-spacing:0px;writing-mode:lr-tb;text-anchor:start;fill:#000000;fill-opacity:1;stroke:none;stroke-width:1px;stroke-linecap:butt;stroke-linejoin:miter;stroke-opacity:1"
       d="m 104.85706,837.29395 0,11.72363 q -2.76856,1.02539 -5.297856,1.02539 -6.186523,0 -10.493164,-4.68262 -4.272461,-4.68262 -4.272461,-11.45019 0,-7.31446 5.161133,-12.33887 5.161133,-5.02442 12.680668,-5.02442 3.99902,0 7.65625,1.60645 3.65722,1.60645 5.74218,4.30664 3.48633,4.47754 3.48633,12.98828 l 0,11.21094 q 0,9.12598 -5.19531,14.7998 -5.16113,5.70801 -13.4668,5.70801 -2.529295,0 -6.391599,-1.26465 l 0,-11.62109 q 2.495117,1.36719 5.058593,1.36719 3.452146,0 5.332036,-2.29004 1.87988,-2.25586 1.87988,-6.49414 l 0,-12.81739 q 0,-5.36621 -4.34082,-5.36621 -1.8457,0 -3.247072,1.43555 -1.367188,1.40137 -1.367188,3.24707 0,1.94824 1.298828,3.24707 1.333012,1.29883 3.281252,1.29883 1.29883,0 2.49512,-0.61523 z" />
    <text
       xml:space="preserve"
       style="font-style:normal;font-variant:normal;font-weight:normal;font-stretch:normal;font-size:45px;line-height:50%;font-family:'Berlin Sans FB';-inkscape-font-specification:'Berlin Sans FB, Normal';text-align:start;letter-spacing:0px;word-spacing:0px;writing-mode:lr-tb;text-anchor:start;fill:#000000;fill-opacity:1;stroke:none;stroke-width:1px;stroke-linecap:butt;stroke-linejoin:miter;stroke-opacity:1;"
       x="-221.42857"
       y="640.93365"
       id="text5033"
       sodipodi:linespacing="50%"><tspan
         sodipodi:role="line"
         id="tspan5035"
         x="-221.42857"
         y="640.93365">Bauhaus 93</tspan></text>
    <text
       sodipodi:linespacing="50%"
       id="text5058"
       y="996.29871"
       x="-273.75134"
       style="font-style:normal;font-variant:normal;font-weight:bold;font-stretch:normal;font-size:70px;line-height:50%;font-family:'Stencil Std';-inkscape-font-specification:'Stencil Std, Bold';text-align:start;letter-spacing:0px;word-spacing:0px;writing-mode:lr;text-anchor:start;fill:#000000;fill-opacity:1;stroke:none;stroke-width:1px;stroke-linecap:butt;stroke-linejoin:miter;stroke-opacity:1;"
       xml:space="preserve"><tspan
         y="996.29871"
         x="-273.75134"
         id="tspan5060"
         sodipodi:role="line">techxodusng</tspan></text>
    <text
       xml:space="preserve"
       style="font-style:normal;font-variant:normal;font-weight:normal;font-stretch:normal;font-size:70px;line-height:50%;font-family:HamburgerHeaven;-inkscape-font-specification:'HamburgerHeaven, Normal';text-align:start;letter-spacing:0px;word-spacing:0px;writing-mode:lr;text-anchor:start;fill:#000000;fill-opacity:1;stroke:none;stroke-width:1px;stroke-linecap:butt;stroke-linejoin:miter;stroke-opacity:1;"
       x="-273.75134"
       y="1097.314"
       id="text5062"
       sodipodi:linespacing="50%"><tspan
         sodipodi:role="line"
         id="tspan5064"
         x="-273.75134"
         y="1097.314">techxodusng</tspan></text>
    <text
       sodipodi:linespacing="50%"
       id="text5066"
       y="1209.4409"
       x="-280.82242"
       style="font-style:normal;font-variant:normal;font-weight:normal;font-stretch:normal;font-size:70px;line-height:50%;font-family:HamburgerHeaven;-inkscape-font-specification:'HamburgerHeaven, Normal';text-align:start;letter-spacing:0px;word-spacing:0px;writing-mode:lr-tb;text-anchor:start;fill:#000000;fill-opacity:1;stroke:none;stroke-width:1px;stroke-linecap:butt;stroke-linejoin:miter;stroke-opacity:1"
       xml:space="preserve"><tspan
         y="1209.4409"
         x="-280.82242"
         id="tspan5068"
         sodipodi:role="line">t3chx0du5ng</tspan></text>
  </g>
</svg>
