<svg xmlns="http://www.w3.org/2000/svg" viewBox="0 0 512 512" enable-background="new 0 0 512 512"><style type="text/css">.st0{fill:#FFFFFF;}</style><path class="st0" d="M511.1 215.7c-30.8-109.9-129.3-187.6-242.3-193.2v-22.5h-25.6v22.5c-113 5.5-211.5 83.2-242.3 193.1-2.8 9.9.7 20.6 8.8 27 4.6 3.7 10.2 5.5 15.9 5.5 4.2 0 8.5-1.1 12.4-3.2 14.6-8 29.7-12.1 45.1-12.1 22.6 0 44.7 8.6 62.2 24.1 4.8 4.3 10.9 6.5 17 6.5 5.3 0 10.5-1.6 15.1-4.9 19.6-14.2 42.2-22.4 65.8-24.7v144.2c0 21.2-17.2 38.4-38.4 38.4s-38.4-17.2-38.4-38.4c0-7.1-5.7-12.8-12.8-12.8s-12.8 5.7-12.8 12.8c0 35.3 28.7 64 64 64s64-28.7 64-64v-144.2c23.7 2.3 46.3 10.4 65.8 24.7 4.5 3.3 9.8 4.9 15.1 4.9 6.1 0 12.2-2.2 17-6.5 17.5-15.6 39.6-24.1 62.2-24.1 15.4 0 30.5 4.1 45.1 12.1 3.9 2.1 8.1 3.2 12.4 3.2 5.6 0 11.3-1.9 15.9-5.5 8.1-6.4 11.5-17 8.8-26.9zm-355.8 16.9c-20.1-15.5-44.9-25.4-72.3-25.4-20.9 0-40.3 5.9-57.5 15.3 24.6-88 98-155.6 189.3-171.4-29.3 36.4-53.3 106.9-59.5 181.5zm100.7-25.4c-26.9 0-52.2 6.9-74.4 18.7 10-99.6 52-174.7 74.4-174.7s64.4 75.1 74.4 174.7c-22.2-11.8-47.5-18.7-74.4-18.7zm172.9 0c-27.4 0-52.1 9.8-72.3 25.4-6.1-74.6-30.2-145.1-59.6-181.5 91.3 15.8 164.7 83.4 189.3 171.4-17-9.4-36.4-15.3-57.4-15.3z"/></svg>