<svg xmlns="http://www.w3.org/2000/svg" viewBox="0 0 150 150"><defs><style>.a{fill:#333c45;}</style></defs><title>-icons</title><path class="a" d="M37.3 79.9h-2.79l-1.38-11.9-.06-2.49-.07 2.49-1.4 11.9h-2.79l-2.49-23h3l1 13.06.06 2.61.05-2.57 1.44-13.06h2.37l1.41 13.06.09 2.64.06-2.64 1-13.06h3zM58.8 79.87h-5a1.7 1.7 0 0 1-1.89-2v-19a1.7 1.7 0 0 1 1.89-2h5a1.71 1.71 0 0 1 1.92 2v19a1.71 1.71 0 0 1-1.92 2zm-1-20.29h-3v17.65h3v-17.65zM79.48 79.87l-2.48-10.26v-2.46h2.1v-7.57h-2.83v20.29h-2.89v-22.93h6.62a1.72 1.72 0 0 1 2 2v8.46a2 2 0 0 1-.38 1.34 1.62 1.62 0 0 1-1.16.5h-.68l2.67 10.57v.12h-3zM99.86 79.87l-2.94-10.68v10.68h-2.92v-22.93h2.88v10.06l2.64-10.09h3.09v.12l-3.17 10.97 3.56 11.75v.12h-3.14zM121.38 79.87h-4.65a1.72 1.72 0 0 1-1.92-2v-5.62h2.88v5h2.7v-4.75l-5-6.8a2.51 2.51 0 0 1-.47-.79 3.5 3.5 0 0 1-.1-1v-5a1.71 1.71 0 0 1 1.92-1.95h4.65a1.73 1.73 0 0 1 2 2v5.32h-2.94v-4.7h-2.7v4.42l5 6.8a3.39 3.39 0 0 1 .48.81 2.92 2.92 0 0 1 .12 1v5.34a1.72 1.72 0 0 1-1.97 1.92zM37.24 88.57h2.62v2.88a2.27 2.27 0 0 1-.46.28 3.62 3.62 0 0 1-.53.19 4 4 0 0 1-.57.11 4.65 4.65 0 0 1-.58 0 3.84 3.84 0 0 1-1.23-.19 2.64 2.64 0 0 1-1-.6 2.81 2.81 0 0 1-.67-1 4.19 4.19 0 0 1-.24-1.5 3.68 3.68 0 0 1 .29-1.54 2.9 2.9 0 0 1 1.82-1.61 3.93 3.93 0 0 1 1.16-.18 5.61 5.61 0 0 1 1 .09 6.37 6.37 0 0 1 .71.17l-.28 1.13a3.94 3.94 0 0 0-.56-.14 4.58 4.58 0 0 0-.72-.07 2.57 2.57 0 0 0-.79.11 1.58 1.58 0 0 0-.62.37 1.7 1.7 0 0 0-.41.67 3 3 0 0 0-.15 1 2.85 2.85 0 0 0 .15 1 1.85 1.85 0 0 0 .4.66 1.51 1.51 0 0 0 .58.38 2 2 0 0 0 .7.12 2.33 2.33 0 0 0 .5-.06 1.2 1.2 0 0 0 .43-.17v-1.13l-1.52-.15v-.82zM51.82 90.57h-2.16l-.52 1.37h-1.36l2.51-6.46h1l2.52 6.46h-1.44zm-1.82-1.07h1.5l-.5-1.34-.22-1-.22 1zM66.34 91.94h-4.42v-6.42h1.36v5.23h3.06v1.19zM79 91.94h-4.46v-6.42h1.36v5.23h3.1v1.19zM87.17 85.52h4.13v1.19h-2.78v1.39h2.48v1.2h-2.48v1.45h2.82v1.19h-4.17v-6.42zM99.87 85.59l.48-.07.53-.05h.98a5.55 5.55 0 0 1 1 .08 2.75 2.75 0 0 1 .84.28 1.64 1.64 0 0 1 .6.55 1.59 1.59 0 0 1 .23.88 2.07 2.07 0 0 1-.39 1.3 1.94 1.94 0 0 1-1.08.69l.49.28 1.6 2.43h-1.58l-1.6-2.48-.71-.11v2.59h-1.39v-6.37zm2.08 1h-.41a1.65 1.65 0 0 0-.32 0v1.77h.58a1.64 1.64 0 0 0 .91-.22.84.84 0 0 0 .33-.76.72.72 0 0 0-.28-.61 1.35 1.35 0 0 0-.76-.15zM114.45 89.58l-2.29-4.05h1.61l1.28 2.36.15.69.16-.71 1.24-2.34h1.46l-2.29 4v2.37h-1.36v-2.32zM149.33 149h-149.01v-149h149v149zm-145.53-3.47h142.05v-142.06h-142.05v142.06z"/></svg>